<?xml version="1.0" encoding="UTF-8"?>
<svg id="_图层_1" data-name="图层 1" xmlns="http://www.w3.org/2000/svg" width="829" height="189" viewBox="0 0 829 189">
  <g>
    <polygon points="170.86 154.79 170.86 189 206.09 168.61 206.09 134.4 170.86 154.79" style="fill: #0080cb; fill-rule: evenodd;"/>
    <polygon points="0 20.39 0 54.57 35.24 34.18 35.24 0 0 20.39" style="fill: #ef8200; fill-rule: evenodd;"/>
    <polygon points="89.28 60.6 120.83 78.84 120.83 42.35 89.28 60.6" style="fill: #0080cb; fill-rule: evenodd;"/>
    <polygon points="170.86 112.07 170.86 146.24 206.09 125.85 206.09 91.67 170.86 112.07" style="fill: #0080cb; fill-rule: evenodd;"/>
    <polygon points="116.81 128.37 85.27 110.13 85.27 146.63 116.81 128.37" style="fill: #ef8200; fill-rule: evenodd;"/>
    <polygon points="128.22 91.73 128.22 125.9 163.46 146.3 163.46 112.12 128.22 91.73" style="fill: #005bab; fill-rule: evenodd;"/>
    <polygon points="0 63.12 0 97.3 35.24 76.9 35.24 42.73 0 63.12" style="fill: #ef8200; fill-rule: evenodd;"/>
    <polygon points="42.63 42.9 42.63 77.08 77.87 97.47 77.87 63.3 42.63 42.9" style="fill: #f5aa00; fill-rule: evenodd;"/>
    <polygon points="128.22 48.95 128.22 83.12 163.46 103.51 163.46 69.34 128.22 48.95" style="fill: #005bab; fill-rule: evenodd;"/>
    <polygon points="170.86 69.34 170.86 103.51 206.09 83.12 206.09 48.95 170.86 69.34" style="fill: #0080cb; fill-rule: evenodd;"/>
    <polygon points="202.4 42.54 167.16 22.15 131.92 42.54 167.16 62.93 202.4 42.54" style="fill: #0080cb; fill-rule: evenodd;"/>
    <polygon points="0 105.85 0 140.02 35.24 119.63 35.24 85.46 0 105.85" style="fill: #ef8200; fill-rule: evenodd;"/>
    <polygon points="42.63 85.46 42.63 119.63 77.87 140.02 77.87 105.85 42.63 85.46" style="fill: #f5aa00; fill-rule: evenodd;"/>
    <polygon points="74.18 146.43 38.94 126.04 3.7 146.43 38.94 166.82 74.18 146.43" style="fill: #ef8200; fill-rule: evenodd;"/>
    <polygon points="85.27 68.03 85.27 102.2 120.51 122.58 120.51 88.42 85.27 68.03" style="fill: #005bab; fill-rule: evenodd;"/>
    <polygon points="128.22 134 128.22 168.21 163.46 188.6 163.46 154.39 128.22 134" style="fill: #005bab; fill-rule: evenodd;"/>
    <polygon points="77.87 54.68 42.63 34.29 42.63 .12 77.87 20.51 77.87 54.68" style="fill: #f5aa00;"/>
  </g>
  <g>
    <path d="M302.94,99.99h-39.95v48.07h-22.02V42.62h22.02v42.71h39.95V42.62h22.02v105.45h-22.02v-48.07Z" style="fill: #005bab;"/>
    <path d="M409.41,104.25c-1.05,.42-2.04,.79-2.99,1.1l20.45,42.71h-23.43l-19.97-41.93h-27.84v41.93h-21.55l-.31-82.28c0-3.15,.6-6.15,1.81-8.98,1.2-2.84,2.83-5.3,4.88-7.41,2.04-2.1,4.48-3.76,7.31-4.96,2.83-1.21,5.82-1.81,8.96-1.81h43.72c3.15,0,6.13,.61,8.96,1.81,2.83,1.21,5.29,2.86,7.39,4.96,2.1,2.1,3.75,4.55,4.95,7.33,1.2,2.79,1.81,5.81,1.81,9.06v17.02c0,3.26-.6,6.28-1.81,9.06-1.21,2.79-2.86,5.23-4.95,7.33-2.1,2.1-4.56,3.78-7.39,5.04Zm-7.86-41.77c0-1.58-.53-2.86-1.57-3.86-1.05-1-2.31-1.5-3.77-1.5h-35.23c-1.57,0-2.86,.5-3.85,1.5-1,1-1.49,2.29-1.49,3.86v29h40.58c1.47,0,2.73-.52,3.77-1.58,1.05-1.05,1.57-2.31,1.57-3.78v-23.64Z" style="fill: #005bab;"/>
    <path d="M435.67,101.1c0-4.31,.81-8.33,2.44-12.06,1.62-3.73,3.85-7.01,6.68-9.85,2.83-2.84,6.13-5.07,9.91-6.7,3.77-1.63,7.76-2.44,11.95-2.44h19.97c3.15,0,6.11,.63,8.89,1.89,2.78,1.26,5.19,2.92,7.23,4.96,2.04,2.05,3.7,4.47,4.95,7.25,1.26,2.79,1.89,5.81,1.89,9.06v1.1c0,3.15-.63,6.12-1.89,8.91-1.26,2.79-2.91,5.23-4.95,7.33-2.04,2.1-4.46,3.76-7.23,4.96-2.78,1.21-5.74,1.81-8.89,1.81h-28.94v7.25c0,2.31,.84,4.31,2.52,5.99,1.68,1.68,3.72,2.52,6.13,2.52h44.51v14.5h-44.19c-4.19,0-8.18-.79-11.95-2.36-3.77-1.58-7.08-3.78-9.91-6.62-2.83-2.84-5.06-6.12-6.68-9.85-1.63-3.73-2.44-7.75-2.44-12.06v-15.6Zm44.19,1.58c2.1,0,3.9-.76,5.43-2.29,1.52-1.52,2.28-3.33,2.28-5.44v-2.36c0-2.21-.76-4.07-2.28-5.6-1.52-1.52-3.33-2.29-5.43-2.29h-13.52c-2.41,0-4.46,.84-6.13,2.52-1.68,1.68-2.52,3.73-2.52,6.15v9.3h22.17Z" style="fill: #005bab;"/>
    <path d="M541.52,147.59v28.06h-21.39l-.47-81.96c0-3.26,.6-6.3,1.81-9.14,1.2-2.84,2.83-5.3,4.88-7.41,2.04-2.1,4.48-3.76,7.31-4.96,2.83-1.21,5.87-1.81,9.12-1.81h33.03c3.15,0,6.13,.61,8.96,1.81,2.83,1.21,5.29,2.84,7.39,4.89,2.1,2.05,3.72,4.49,4.88,7.33,1.15,2.84,1.73,5.89,1.73,9.14v30.89c0,3.26-.58,6.28-1.73,9.06-1.16,2.79-2.78,5.23-4.88,7.33-2.1,2.1-4.56,3.76-7.39,4.96-2.83,1.21-5.82,1.81-8.96,1.81h-34.28Zm35.39-57.37c0-1.47-.53-2.73-1.57-3.78-1.05-1.05-2.31-1.58-3.77-1.58h-24.85c-1.47,0-2.7,.53-3.7,1.58-1,1.05-1.49,2.31-1.49,3.78v42.87h30.04c1.47,0,2.73-.5,3.77-1.5,1.05-1,1.57-2.29,1.57-3.86v-37.51Z" style="fill: #005bab;"/>
    <path d="M607.57,93.37c0-3.15,.6-6.15,1.81-8.98,1.2-2.84,2.83-5.28,4.88-7.33,2.04-2.05,4.48-3.68,7.31-4.89,2.83-1.21,5.82-1.81,8.96-1.81h29.88c3.25,0,6.26,.61,9.04,1.81,2.78,1.21,5.19,2.84,7.23,4.89,2.04,2.05,3.7,4.49,4.95,7.33,1.26,2.84,1.89,5.83,1.89,8.98v31.05c0,3.15-.63,6.12-1.89,8.91-1.26,2.79-2.91,5.2-4.95,7.25-2.04,2.05-4.46,3.7-7.23,4.96-2.78,1.26-5.79,1.89-9.04,1.89h-29.88c-3.15,0-6.13-.63-8.96-1.89-2.83-1.26-5.27-2.92-7.31-4.96-2.04-2.05-3.67-4.46-4.88-7.25-1.21-2.78-1.81-5.75-1.81-8.91v-31.05Zm53.94-3.15c0-1.47-.5-2.73-1.49-3.78-1-1.05-2.28-1.58-3.85-1.58h-21.39c-1.47,0-2.73,.53-3.77,1.58-1.05,1.05-1.57,2.31-1.57,3.78v37.36c0,1.58,.52,2.86,1.57,3.86,1.05,1,2.31,1.5,3.77,1.5h21.39c1.57,0,2.86-.5,3.85-1.5,1-1,1.49-2.29,1.49-3.86v-37.36Z" style="fill: #005bab;"/>
    <path d="M753.67,84.7h-34.13c-1.47,0-2.7,.53-3.7,1.58-1,1.05-1.49,2.31-1.49,3.78v57.53h-22.02v-54.22c0-3.26,.6-6.28,1.81-9.06,1.2-2.78,2.86-5.23,4.95-7.33,2.1-2.1,4.53-3.78,7.31-5.04,2.78-1.26,5.79-1.89,9.04-1.89h38.22v14.66Z" style="fill: #005bab;"/>
    <path d="M801.95,131.44c1.05,1,2.3,1.5,3.77,1.5h17.61v14.5h-21.7c-3.25,0-6.27-.63-9.04-1.89-2.78-1.26-5.24-2.92-7.39-4.96-2.15-2.05-3.83-4.46-5.03-7.25-1.21-2.78-1.81-5.75-1.81-8.91v-39.72h-15.88v-14.5h15.88v-28.37h22.02v28.37h22.96v14.5h-22.96v42.87c0,1.58,.52,2.86,1.57,3.86Z" style="fill: #005bab;"/>
  </g>
</svg>